<svg version="1.2" xmlns="http://www.w3.org/2000/svg" viewBox="0 0 93 87" width="93" height="87">
	<title>Новий проект</title>
	<style>
		.s0 { fill: #ffc300 } 
		.s1 { fill: #24d7ff } 
		.s2 { fill: #bbd922 } 
		.s3 { fill: #ef0a30 } 
	</style>
	<g id="logo-shape">
		<path id="Layer" class="s0" d="m86.4 62.3c0 5.5-4.4 9.9-9.9 9.9h-66.8c-5.5 0-9.9-4.4-9.9-9.9 0-5.5 4.4-9.9 9.9-9.9h66.8c5.5 0 9.9 4.4 9.9 9.9z"/>
		<path id="Layer" class="s1" d="m22 87c-1.3 0-2.6-0.3-3.8-0.8-1.2-0.5-2.3-1.2-3.2-2.1-0.9-0.9-1.6-2-2.1-3.2-0.5-1.2-0.8-2.5-0.8-3.8l10-66.8c0-5.5 4.4-9.9 9.9-9.9 5.5 0 9.9 4.4 9.9 9.9l-10 66.8c0 1.3-0.3 2.6-0.8 3.8-0.5 1.2-1.2 2.3-2.1 3.2-0.9 0.9-2 1.6-3.2 2.1-1.2 0.5-2.5 0.8-3.8 0.8z"/>
		<path id="Layer" class="s2" d="m92.4 25.6c0 5.5-4.4 9.9-9.9 9.9h-66.8c-5.5 0-9.9-4.4-9.9-9.9 0-5.5 4.4-9.9 9.9-9.9h66.8c1.3 0 2.6 0.3 3.8 0.8 1.2 0.5 2.3 1.2 3.2 2.1 0.9 0.9 1.6 2 2.1 3.2 0.5 1.2 0.8 2.5 0.8 3.8z"/>
		<path id="Layer" class="s3" d="m60.6 87c-1.3 0-2.6-0.3-3.8-0.8-1.2-0.5-2.3-1.2-3.2-2.1-0.9-0.9-1.6-2-2.1-3.2-0.5-1.2-0.8-2.5-0.8-3.8l10-66.8c0-5.5 4.4-9.9 9.9-9.9 5.5 0 9.9 4.4 9.9 9.9l-10 66.8c0 1.3-0.3 2.6-0.8 3.8-0.5 1.2-1.2 2.3-2.1 3.2-0.9 0.9-2 1.6-3.2 2.1-1.2 0.5-2.5 0.8-3.8 0.8z"/>
		<path id="Layer" class="s0" d="m86.4 62.3c0 5.5-4.4 9.9-9.9 9.9h-33.4v-19.8h33.4c5.5 0 9.9 4.4 9.9 9.9z"/>
	</g>
</svg>