<svg width="25" height="25" viewBox="0 0 25 25" fill="none" xmlns="http://www.w3.org/2000/svg">
<g clip-path="url(#clip0_35_4)">
<path d="M23.2258 17.9023C23.2258 19.4828 22.043 20.7471 20.5645 20.7471H2.60753C1.12904 20.7471 -0.0537567 19.4828 -0.0537567 17.9023C-0.0537567 16.3218 1.12904 15.0575 2.60753 15.0575H20.5645C22.043 15.0575 23.2258 16.3218 23.2258 17.9023V17.9023Z" fill="#070B75"/>
<path d="M5.91399 25C5.56453 25 5.21507 24.9138 4.89249 24.7701C4.56991 24.6264 4.27421 24.4253 4.03227 24.1667C3.79034 23.908 3.60216 23.592 3.46775 23.2471C3.33335 22.9023 3.2527 22.5287 3.2527 22.1552L5.94087 2.95977C5.94087 1.37931 7.12367 0.114944 8.60216 0.114944C10.0807 0.114944 11.2635 1.37931 11.2635 2.95977L8.57528 22.1552C8.57528 22.5287 8.49464 22.9023 8.36023 23.2471C8.22582 23.592 8.03765 23.908 7.79571 24.1667C7.55378 24.4253 7.25808 24.6264 6.9355 24.7701C6.61292 24.9138 6.26345 25 5.91399 25V25Z" fill="#070B75"/>
<path d="M24.8387 7.35632C24.8387 8.93678 23.6559 10.2011 22.1774 10.2011H4.22043C2.74194 10.2011 1.55914 8.93678 1.55914 7.35632C1.55914 5.77586 2.74194 4.51149 4.22043 4.51149H22.1774C22.5269 4.51149 22.8763 4.5977 23.1989 4.74137C23.5215 4.88505 23.8172 5.0862 24.0591 5.34482C24.3011 5.60344 24.4893 5.91954 24.6237 6.26436C24.7581 6.60919 24.8387 6.98275 24.8387 7.35632V7.35632Z" fill="#070B75"/>
<path d="M16.2903 25C15.9409 25 15.5914 24.9138 15.2688 24.7701C14.9462 24.6264 14.6505 24.4253 14.4086 24.1667C14.1667 23.908 13.9785 23.592 13.8441 23.2471C13.7097 22.9023 13.629 22.5287 13.629 22.1552L16.3172 2.95977C16.3172 1.37931 17.5 0.114944 18.9785 0.114944C20.457 0.114944 21.6398 1.37931 21.6398 2.95977L18.9516 22.1552C18.9516 22.5287 18.871 22.9023 18.7366 23.2471C18.6022 23.592 18.414 23.908 18.1721 24.1667C17.9301 24.4253 17.6344 24.6264 17.3118 24.7701C16.9893 24.9138 16.6398 25 16.2903 25V25Z" fill="#070B75"/>
<path d="M23.2258 17.9023C23.2258 19.4828 22.043 20.7471 20.5645 20.7471H11.586V15.0575H20.5645C22.043 15.0575 23.2258 16.3218 23.2258 17.9023V17.9023Z" fill="#070B75"/>
</g>
<defs>
<clipPath id="clip0_35_4">
<rect width="25" height="25" fill="white"/>
</clipPath>
</defs>
</svg>
